<?xml version="1.0" encoding="UTF-8" standalone="no"?>
<!-- Generator: Adobe Illustrator 19.0.0, SVG Export Plug-In . SVG Version: 6.00 Build 0)  -->

<svg
   version="1.1"
   id="Layer_1"
   x="0px"
   y="0px"
   viewBox="0 0 144 144"
   xml:space="preserve"
   sodipodi:docname="tt_logo_orig.svg"
   width="144"
   height="144"
   inkscape:export-filename="tt_logo.png"
   inkscape:export-xdpi="96"
   inkscape:export-ydpi="96"
   inkscape:version="1.3.2 (091e20ef0f, 2023-11-25)"
   xmlns:inkscape="http://www.inkscape.org/namespaces/inkscape"
   xmlns:sodipodi="http://sodipodi.sourceforge.net/DTD/sodipodi-0.dtd"
   xmlns="http://www.w3.org/2000/svg"
   xmlns:svg="http://www.w3.org/2000/svg"><defs
   id="defs1">
	
</defs><sodipodi:namedview
   id="namedview1"
   pagecolor="#ffffff"
   bordercolor="#666666"
   borderopacity="1.0"
   inkscape:showpageshadow="2"
   inkscape:pageopacity="0.0"
   inkscape:pagecheckerboard="0"
   inkscape:deskcolor="#d1d1d1"
   inkscape:zoom="7.0555556"
   inkscape:cx="72.070866"
   inkscape:cy="72"
   inkscape:window-width="1920"
   inkscape:window-height="1216"
   inkscape:window-x="0"
   inkscape:window-y="0"
   inkscape:window-maximized="1"
   inkscape:current-layer="Layer_1"
   showgrid="true"><inkscape:grid
     id="grid13"
     units="px"
     originx="0"
     originy="0"
     spacingx="1"
     spacingy="1"
     empcolor="#3f3fff"
     empopacity="0.25098039"
     color="#3f3fff"
     opacity="0.1254902"
     empspacing="5"
     dotted="false"
     gridanglex="30"
     gridanglez="30"
     visible="true" /></sodipodi:namedview>
<rect
   style="fill:#ffffff;stroke-width:16.1024;stroke-linecap:round;stroke-linejoin:round;stroke:none"
   id="rect11"
   width="144"
   height="144"
   x="0"
   y="0" /><path
   id="path1"
   style="opacity:1;fill:#000000;fill-opacity:1;stroke-width:5.09327;stroke-linecap:round;stroke-linejoin:round"
   d="M 72,8 C 43.997739,8.0296573 19.266285,26.260163 10.953125,53 H 46 v 43 h 12 2 5 V 85 h 11 v 40.6875 c -1.329002,0.15368 -2.663256,0.25792 -4,0.3125 -29.823376,0 -54,-24.17662 -54,-54 0.05545,-4.388667 0.645744,-8.754205 1.757812,-13 H 9.4980469 C 8.5558293,63.270766 8.053857,67.626864 8,72 c 0,35.34622 28.653776,64 64,64 7.874865,-0.0541 15.67212,-1.56111 23,-4.44531 V 120.74219 85 h 19 V 80 78 66 H 95 76 65 V 53 H 85 V 48 46 34 H 33.919922 C 43.991364,23.830976 57.687866,18.076155 72,18 c 29.82338,0 54,24.176624 54,54 -0.0631,18.393202 -9.48409,35.48941 -25,45.36719 v 11.53125 C 122.42456,118.00837 135.94207,96.033352 136,72 136,36.653776 107.34622,8 72,8 Z"
   sodipodi:nodetypes="cccccccccccccccccccccccccccccccccccccc" />
</svg>
