<?xml version="1.0" encoding="UTF-8" standalone="no"?>
<!-- Generator: Adobe Illustrator 19.0.0, SVG Export Plug-In . SVG Version: 6.00 Build 0)  -->

<svg
   version="1.1"
   id="Layer_1"
   x="0px"
   y="0px"
   viewBox="0 0 144 144"
   xml:space="preserve"
   sodipodi:docname="tt_logo_alt3.svg"
   width="144"
   height="144"
   inkscape:export-filename="tt_logo.png"
   inkscape:export-xdpi="96"
   inkscape:export-ydpi="96"
   inkscape:version="1.3.2 (091e20ef0f, 2023-11-25)"
   xmlns:inkscape="http://www.inkscape.org/namespaces/inkscape"
   xmlns:sodipodi="http://sodipodi.sourceforge.net/DTD/sodipodi-0.dtd"
   xmlns="http://www.w3.org/2000/svg"
   xmlns:svg="http://www.w3.org/2000/svg"><defs
   id="defs1">
	
</defs><sodipodi:namedview
   id="namedview1"
   pagecolor="#ffffff"
   bordercolor="#666666"
   borderopacity="1.0"
   inkscape:showpageshadow="2"
   inkscape:pageopacity="0.0"
   inkscape:pagecheckerboard="0"
   inkscape:deskcolor="#d1d1d1"
   inkscape:zoom="7.0555556"
   inkscape:cx="72"
   inkscape:cy="72"
   inkscape:window-width="1920"
   inkscape:window-height="1216"
   inkscape:window-x="0"
   inkscape:window-y="0"
   inkscape:window-maximized="1"
   inkscape:current-layer="Layer_1"
   showgrid="true"><inkscape:grid
     id="grid13"
     units="px"
     originx="0"
     originy="0"
     spacingx="1"
     spacingy="1"
     empcolor="#3f3fff"
     empopacity="0.25098039"
     color="#3f3fff"
     opacity="0.1254902"
     empspacing="5"
     dotted="false"
     gridanglex="30"
     gridanglez="30"
     visible="true" /></sodipodi:namedview>
<rect
   style="fill:#ffffff;stroke-width:16.1024;stroke-linecap:round;stroke-linejoin:round;stroke:none"
   id="rect11"
   width="144"
   height="144"
   x="0"
   y="0" /><path
   id="circle10"
   style="opacity:1;fill:#000000;stroke-width:5.09327;stroke-linecap:round;stroke-linejoin:round;fill-opacity:1"
   d="M 72 8 A 64 64 0 0 0 67 8.3886719 L 67 12.410156 A 60 60 0 0 1 72 12 A 60 60 0 0 1 85 13.443359 L 85 9.3457031 A 64 64 0 0 0 72 8 z M 65 8.5449219 A 64 64 0 0 0 46 13.744141 L 46 18.125 A 60 60 0 0 1 65 12.574219 L 65 8.5449219 z M 87 9.7949219 L 87 13.90625 A 60 60 0 0 1 95 16.609375 L 95 12.308594 A 64 64 0 0 0 87 9.7949219 z M 97 13.236328 L 97 17.589844 A 60 60 0 0 1 114 29.470703 L 114 23.980469 A 64 64 0 0 0 97 13.236328 z M 72 14 A 58 58 0 0 0 67 14.435547 L 67 18.390625 A 54 54 0 0 1 72 18 A 54 54 0 0 1 85 19.607422 L 85 15.494141 A 58 58 0 0 0 72 14 z M 44 14.609375 A 64 64 0 0 0 22.289062 32 L 27.462891 32 A 60 60 0 0 1 44 19.197266 L 44 14.609375 z M 65 14.609375 A 58 58 0 0 0 46 20.425781 L 46 25.119141 A 54 54 0 0 1 65 18.576172 L 65 14.609375 z M 87 15.974609 L 87 20.138672 A 54 54 0 0 1 95 23.181641 L 95 18.804688 A 58 58 0 0 0 87 15.974609 z M 97 19.832031 L 97 24.324219 A 54 54 0 0 1 114 38.369141 L 114 32.310547 A 58 58 0 0 0 97 19.832031 z M 44 21.451172 A 58 58 0 0 0 30.248047 32 L 36.238281 32 A 54 54 0 0 1 44 26.261719 L 44 21.451172 z M 116 25.945312 L 116 31.427734 A 60 60 0 0 1 126.03125 46 L 130.36523 46 A 64 64 0 0 0 116 25.945312 z M 20.755859 34 A 64 64 0 0 0 10.953125 53 L 15.232422 53 A 60 60 0 0 1 25.882812 34 L 20.755859 34 z M 29 34 L 29 39 L 44 39 L 44 34 L 33.919922 34 L 29 34 z M 46 34 L 46 39 L 65 39 L 65 34 L 46 34 z M 67 34 L 67 39 L 80 39 L 80 41 L 67 41 L 67 46 L 75 46 L 85 46 L 85 34 L 67 34 z M 116 34.513672 L 116 41.054688 A 54 54 0 0 1 119.23633 46 L 123.73633 46 A 58 58 0 0 0 116 34.513672 z M 27 35.822266 A 58 58 0 0 0 24.460938 39 L 27 39 L 27 35.822266 z M 23.195312 41 A 58 58 0 0 0 17.373047 53 L 21 53 L 21.599609 53 L 27 53 L 27 48 L 23.734375 48 A 54 54 0 0 1 24.828125 46 L 27 46 L 27 41 L 23.195312 41 z M 29 41 L 29 46 L 44 46 L 44 41 L 29 41 z M 46 41 L 46 46 L 65 46 L 65 41 L 46 41 z M 29 48 L 29 53 L 44 53 L 44 48 L 29 48 z M 46 48 L 46 53 L 46 64 L 51 64 L 51 48 L 46 48 z M 53 48 L 53 64 L 58 64 L 58 53 L 60 53 L 60 64 L 65 64 L 65 54 L 65 53 L 65 48 L 53 48 z M 67 48 L 67 53 L 85 53 L 85 51.917969 L 85 48 L 75 48 L 67 48 z M 120.27539 48 A 54 54 0 0 1 125.35547 64 L 129.41602 64 A 58 58 0 0 0 124.75977 48 L 120.27539 48 z M 126.88477 48 A 60 60 0 0 1 131.41797 64 L 135.42773 64 A 64 64 0 0 0 131.14258 48 L 126.88477 48 z M 9.4980469 59 A 64 64 0 0 0 8.6601562 64 L 12.572266 64 L 14.572266 64 L 18.769531 64 A 54 54 0 0 1 19.757812 59 L 9.4980469 59 z M 8.3808594 66 A 64 64 0 0 0 8 72 A 64 64 0 0 0 9.5390625 85 L 13.599609 85 A 60 60 0 0 1 12 72 A 60 60 0 0 1 12.429688 66 L 8.3808594 66 z M 14.429688 66 A 58 58 0 0 0 14 72 A 58 58 0 0 0 15.701172 85 L 19.769531 85 A 54 54 0 0 1 18 72 A 54 54 0 0 1 18.441406 66 L 14.429688 66 z M 46 66 L 46 85 L 51 85 L 51 66 L 46 66 z M 53 66 L 53 85 L 58 85 L 58 66 L 53 66 z M 60 66 L 60 71 L 74 71 L 74 66 L 65 66 L 60 66 z M 76 66 L 76 71 L 95 71 L 95 66 L 76 66 z M 97 66 L 97 71 L 109 71 L 109 73 L 97 73 L 97 78 L 107 78 L 114 78 L 114 66 L 97 66 z M 125.51562 66 A 54 54 0 0 1 126 72 A 54 54 0 0 1 125.49219 78 L 129.51953 78 A 58 58 0 0 0 130 72 A 58 58 0 0 0 129.5625 66 L 125.51562 66 z M 131.5625 66 A 60 60 0 0 1 132 72 A 60 60 0 0 1 131.57227 78 L 135.57617 78 A 64 64 0 0 0 136 72 A 64 64 0 0 0 135.57031 66 L 131.5625 66 z M 60 73 L 60 85 L 65 85 L 66 85 L 74 85 L 74 80 L 65 80 L 65 78 L 74 78 L 74 73 L 60 73 z M 76 73 L 76 78 L 95 78 L 95 73 L 76 73 z M 76 80 L 76 85 L 76 96 L 80.945312 96 L 80.945312 80 L 76 80 z M 82.945312 80 L 82.945312 96 L 88 96 L 88 85 L 90 85 L 90 96 L 95 96 L 95 86 L 95 85 L 95 80 L 82.945312 80 z M 97 80 L 97 85 L 114 85 L 114 80 L 107 80 L 97 80 z M 125.32422 80 A 54 54 0 0 1 120.17188 96 L 124.56641 96 A 58 58 0 0 0 129.35938 80 L 125.32422 80 z M 131.42969 80 A 60 60 0 0 1 126.92383 96 L 131.16602 96 A 64 64 0 0 0 135.43555 80 L 131.42969 80 z M 9.9414062 87 A 64 64 0 0 0 12.818359 96 L 17.076172 96 A 60 60 0 0 1 14.021484 87 L 9.9414062 87 z M 16.146484 87 A 58 58 0 0 0 19.355469 96 L 23.671875 96 A 54 54 0 0 1 20.242188 87 L 16.146484 87 z M 46 87 L 46 96 L 58 96 L 58 90 L 58 87 L 53 87 L 53 91 L 51 91 L 51 87 L 46 87 z M 60 87 L 60 90 L 60 96 L 65 96 L 65 87 L 60 87 z M 13.564453 98 A 64 64 0 0 0 26.769531 117 L 27 117 L 27 111.5 A 60 60 0 0 1 18.007812 98 L 13.564453 98 z M 20.185547 98 A 58 58 0 0 0 27 108.19727 L 27 101.31445 A 54 54 0 0 1 24.794922 98 L 20.185547 98 z M 76 98 L 76 117 L 80.945312 117 L 80.945312 98 L 76 98 z M 82.945312 98 L 82.945312 117 L 88 117 L 88 98 L 82.945312 98 z M 90 98 L 90 117 L 95 117 L 95 98 L 90 98 z M 119.07031 98 A 54 54 0 0 1 116 102.8418 L 116 109.58008 A 58 58 0 0 0 123.73242 98 L 119.07031 98 z M 125.89062 98 A 60 60 0 0 1 116 112.44336 L 116 118.21289 A 64 64 0 0 0 130.38086 98 L 125.89062 98 z M 29 104.32227 L 29 110.65039 A 58 58 0 0 0 35.681641 117 L 42.447266 117 A 54 54 0 0 1 29 104.32227 z M 114 105.45703 A 54 54 0 0 1 108 111.82617 L 108 117.1875 A 58 58 0 0 0 114 111.66406 L 114 105.45703 z M 29 113.5 L 29 117 L 32.5 117 A 60 60 0 0 1 29 113.5 z M 106 113.6582 A 54 54 0 0 1 101 117.36719 L 101 128.89844 A 64 64 0 0 0 106 125.91406 L 106 121.30469 L 106 118.81445 L 106 113.6582 z M 114 114.50195 A 60 60 0 0 1 108 119.75 L 108 124.67773 A 64 64 0 0 0 114 120.00391 L 114 114.50195 z M 28.742188 119 A 64 64 0 0 0 44 129.24805 L 44 124.75586 A 60 60 0 0 1 34.957031 119 L 28.742188 119 z M 38.099609 119 A 58 58 0 0 0 44 122.65625 L 44 119 L 38.099609 119 z M 76 119 L 76 125.6875 L 76 129.71289 A 58 58 0 0 0 88 127.72461 L 88 119 L 82.945312 119 L 82.945312 124.74219 A 54 54 0 0 1 80.945312 125.17773 L 80.945312 119 L 76 119 z M 90 119 L 90 127.02344 A 58 58 0 0 0 95 125.16406 L 95 120.74219 L 95 119 L 90 119 z M 46 119.08789 L 46 123.62305 A 58 58 0 0 0 58 128.08398 L 58 124.01367 A 54 54 0 0 1 46 119.08789 z M 60 124.47852 L 60 128.56445 A 58 58 0 0 0 72 130 A 58 58 0 0 0 74 129.85742 L 74 125.84375 A 54 54 0 0 1 72 126 A 54 54 0 0 1 60 124.47852 z M 46 125.72656 L 46 130.12891 A 64 64 0 0 0 58 134.22852 L 58 130.18555 A 60 60 0 0 1 46 125.72656 z M 95 127.2832 A 60 60 0 0 1 76 131.71484 L 76 135.72656 A 64 64 0 0 0 95 131.55469 L 95 128 L 95 127.2832 z M 60 130.59961 L 60 134.6875 A 64 64 0 0 0 72 136 A 64 64 0 0 0 74 135.86328 L 74 131.85742 A 60 60 0 0 1 72 132 A 60 60 0 0 1 60 130.59961 z " />
</svg>
