<?xml version="1.0" encoding="UTF-8" standalone="no"?>
<!-- Generator: Adobe Illustrator 19.0.0, SVG Export Plug-In . SVG Version: 6.00 Build 0)  -->

<svg
   version="1.1"
   id="Layer_1"
   x="0px"
   y="0px"
   viewBox="0 0 144 144"
   xml:space="preserve"
   sodipodi:docname="tt_logo_alt4.svg"
   width="144"
   height="144"
   inkscape:export-filename="tt_logo.png"
   inkscape:export-xdpi="96"
   inkscape:export-ydpi="96"
   inkscape:version="1.3.2 (091e20ef0f, 2023-11-25)"
   xmlns:inkscape="http://www.inkscape.org/namespaces/inkscape"
   xmlns:sodipodi="http://sodipodi.sourceforge.net/DTD/sodipodi-0.dtd"
   xmlns="http://www.w3.org/2000/svg"
   xmlns:svg="http://www.w3.org/2000/svg"><defs
   id="defs1">
	
</defs><sodipodi:namedview
   id="namedview1"
   pagecolor="#ffffff"
   bordercolor="#666666"
   borderopacity="1.0"
   inkscape:showpageshadow="2"
   inkscape:pageopacity="0.0"
   inkscape:pagecheckerboard="0"
   inkscape:deskcolor="#d1d1d1"
   inkscape:zoom="7.0555556"
   inkscape:cx="74.125984"
   inkscape:cy="72"
   inkscape:window-width="1920"
   inkscape:window-height="1216"
   inkscape:window-x="0"
   inkscape:window-y="0"
   inkscape:window-maximized="1"
   inkscape:current-layer="Layer_1"
   showgrid="true"><inkscape:grid
     id="grid13"
     units="px"
     originx="0"
     originy="0"
     spacingx="1"
     spacingy="1"
     empcolor="#3f3fff"
     empopacity="0.25098039"
     color="#3f3fff"
     opacity="0.1254902"
     empspacing="5"
     dotted="false"
     gridanglex="30"
     gridanglez="30"
     visible="true" /></sodipodi:namedview>
<rect
   style="fill:#ffffff;stroke-width:16.1024;stroke-linecap:round;stroke-linejoin:round;stroke:none"
   id="rect11"
   width="144"
   height="144"
   x="0"
   y="0" /><path
   id="path1"
   style="opacity:1;fill:#000000;fill-opacity:1;stroke-width:5.09327;stroke-linecap:round;stroke-linejoin:round"
   d="M 72,8 C 43.997739,8.0296573 19.266285,26.260163 10.953125,53 H 46 v 43 h 12 2 5 V 85 h 11 v 40.6875 c -1.329002,0.15368 -2.663256,0.25792 -4,0.3125 -29.823376,0 -54,-24.17662 -54,-54 0.05545,-4.388667 0.645744,-8.754205 1.757812,-13 H 9.4980469 C 8.5558293,63.270766 8.053857,67.626864 8,72 c 0,35.34622 28.653776,64 64,64 7.874865,-0.0541 15.67212,-1.56111 23,-4.44531 V 120.74219 85 h 19 V 80 78 66 H 95 76 65 V 53 H 85 V 48 46 34 H 33.919922 C 43.991364,23.830976 57.687866,18.076155 72,18 c 29.82338,0 54,24.176624 54,54 -0.0631,18.393202 -9.48409,35.48941 -25,45.36719 v 11.53125 C 122.42456,118.00837 135.94207,96.033352 136,72 136,36.653776 107.34622,8 72,8 Z"
   sodipodi:nodetypes="cccccccccccccccccccccccccccccccccccccc" />
<rect
   style="fill:#ff0000;stroke-width:3.06007;stroke-linecap:round;stroke-linejoin:round"
   id="rect108"
   width="4"
   height="2"
   x="76"
   y="39" /><rect
   style="fill:#ff0000;stroke-width:3.06007;stroke-linecap:round;stroke-linejoin:round"
   id="rect109"
   width="4"
   height="2"
   x="70"
   y="39" /><rect
   style="fill:#ff0000;stroke-width:3.06007;stroke-linecap:round;stroke-linejoin:round"
   id="rect110"
   width="4"
   height="2"
   x="64"
   y="39" /><rect
   style="fill:#ff0000;stroke-width:3.06007;stroke-linecap:round;stroke-linejoin:round"
   id="rect111"
   width="4"
   height="2"
   x="58"
   y="39" /><rect
   style="fill:#ff0000;stroke-width:3.06007;stroke-linecap:round;stroke-linejoin:round"
   id="rect112"
   width="4"
   height="2"
   x="52"
   y="39" /><rect
   style="fill:#ff0000;stroke-width:3.06007;stroke-linecap:round;stroke-linejoin:round"
   id="rect113"
   width="4"
   height="2"
   x="46"
   y="39" /><rect
   style="fill:#ff0000;stroke-width:3.06007;stroke-linecap:round;stroke-linejoin:round"
   id="rect114"
   width="4"
   height="2"
   x="40"
   y="39" /><rect
   style="fill:#ff0000;stroke-width:3.06007;stroke-linecap:round;stroke-linejoin:round"
   id="rect115"
   width="4"
   height="2"
   x="34"
   y="39" /><rect
   style="fill:#ff0000;stroke-width:3.06007;stroke-linecap:round;stroke-linejoin:round"
   id="rect116"
   width="4"
   height="2"
   x="28"
   y="39" /><rect
   style="fill:#ff0000;stroke-width:3.06007;stroke-linecap:round;stroke-linejoin:round"
   id="rect118"
   width="4"
   height="2"
   x="79"
   y="46" /><rect
   style="fill:#ff0000;stroke-width:3.06007;stroke-linecap:round;stroke-linejoin:round"
   id="rect119"
   width="4"
   height="2"
   x="73"
   y="46" /><rect
   style="fill:#ff0000;stroke-width:3.06007;stroke-linecap:round;stroke-linejoin:round"
   id="rect120"
   width="4"
   height="2"
   x="67"
   y="46" /><rect
   style="fill:#ff0000;stroke-width:3.06007;stroke-linecap:round;stroke-linejoin:round"
   id="rect121"
   width="4"
   height="2"
   x="61"
   y="46" /><rect
   style="fill:#ff0000;stroke-width:3.06007;stroke-linecap:round;stroke-linejoin:round"
   id="rect122"
   width="4"
   height="2"
   x="55"
   y="46" /><rect
   style="fill:#ff0000;stroke-width:3.06007;stroke-linecap:round;stroke-linejoin:round"
   id="rect123"
   width="4"
   height="2"
   x="49"
   y="46" /><rect
   style="fill:#ff0000;stroke-width:3.06007;stroke-linecap:round;stroke-linejoin:round"
   id="rect124"
   width="4"
   height="2"
   x="43"
   y="46" /><rect
   style="fill:#ff0000;stroke-width:3.06007;stroke-linecap:round;stroke-linejoin:round"
   id="rect125"
   width="4"
   height="2"
   x="37"
   y="46" /><rect
   style="fill:#ff0000;stroke-width:3.06007;stroke-linecap:round;stroke-linejoin:round"
   id="rect126"
   width="4"
   height="2"
   x="31"
   y="46" /><rect
   style="fill:#ff0000;stroke-width:3.06007;stroke-linecap:round;stroke-linejoin:round"
   id="rect127"
   width="4"
   height="2"
   x="25"
   y="46" /><rect
   style="fill:#ff0000;stroke-width:3.06008;stroke-linecap:round;stroke-linejoin:round"
   id="rect128"
   width="2"
   height="4"
   x="51"
   y="50" /><rect
   style="fill:#ff0000;stroke-width:3.06008;stroke-linecap:round;stroke-linejoin:round"
   id="rect129"
   width="2"
   height="4"
   x="51"
   y="56" /><rect
   style="fill:#ff0000;stroke-width:3.06008;stroke-linecap:round;stroke-linejoin:round"
   id="rect130"
   width="2"
   height="4"
   x="51"
   y="62" /><rect
   style="fill:#ff0000;stroke-width:3.06008;stroke-linecap:round;stroke-linejoin:round"
   id="rect131"
   width="2"
   height="4"
   x="51"
   y="68" /><rect
   style="fill:#ff0000;stroke-width:3.06008;stroke-linecap:round;stroke-linejoin:round"
   id="rect132"
   width="2"
   height="4"
   x="51"
   y="74" /><rect
   style="fill:#ff0000;stroke-width:3.06008;stroke-linecap:round;stroke-linejoin:round"
   id="rect133"
   width="2"
   height="4"
   x="51"
   y="80" /><rect
   style="fill:#ff0000;stroke-width:3.06008;stroke-linecap:round;stroke-linejoin:round"
   id="rect134"
   width="2"
   height="4"
   x="51"
   y="86" /><rect
   style="fill:#ff0000;stroke-width:3.06008;stroke-linecap:round;stroke-linejoin:round"
   id="rect135"
   width="2"
   height="4"
   x="58"
   y="90" /><rect
   style="fill:#ff0000;stroke-width:3.06008;stroke-linecap:round;stroke-linejoin:round"
   id="rect136"
   width="2"
   height="4"
   x="58"
   y="84" /><rect
   style="fill:#ff0000;stroke-width:3.06008;stroke-linecap:round;stroke-linejoin:round"
   id="rect137"
   width="2"
   height="4"
   x="58"
   y="78" /><rect
   style="fill:#ff0000;stroke-width:3.06008;stroke-linecap:round;stroke-linejoin:round"
   id="rect138"
   width="2"
   height="4"
   x="58"
   y="72" /><rect
   style="fill:#ff0000;stroke-width:3.06008;stroke-linecap:round;stroke-linejoin:round"
   id="rect139"
   width="2"
   height="4"
   x="58"
   y="66" /><rect
   style="fill:#ff0000;stroke-width:3.06008;stroke-linecap:round;stroke-linejoin:round"
   id="rect140"
   width="2"
   height="4"
   x="58"
   y="60" /><rect
   style="fill:#ff0000;stroke-width:3.06008;stroke-linecap:round;stroke-linejoin:round"
   id="rect141"
   width="2"
   height="4"
   x="58"
   y="54" /><rect
   style="fill:#ff0000;stroke-width:3.06007;stroke-linecap:round;stroke-linejoin:round"
   id="rect142"
   width="4"
   height="2"
   x="62"
   y="71" /><rect
   style="fill:#ff0000;stroke-width:3.06007;stroke-linecap:round;stroke-linejoin:round"
   id="rect143"
   width="4"
   height="2"
   x="68"
   y="71" /><rect
   style="fill:#ff0000;stroke-width:3.06007;stroke-linecap:round;stroke-linejoin:round"
   id="rect144"
   width="4"
   height="2"
   x="74"
   y="71" /><rect
   style="fill:#ff0000;stroke-width:3.06007;stroke-linecap:round;stroke-linejoin:round"
   id="rect145"
   width="4"
   height="2"
   x="80"
   y="71" /><rect
   style="fill:#ff0000;stroke-width:3.06007;stroke-linecap:round;stroke-linejoin:round"
   id="rect146"
   width="4"
   height="2"
   x="86"
   y="71" /><rect
   style="fill:#ff0000;stroke-width:3.06007;stroke-linecap:round;stroke-linejoin:round"
   id="rect147"
   width="4"
   height="2"
   x="92"
   y="71" /><rect
   style="fill:#ff0000;stroke-width:3.06007;stroke-linecap:round;stroke-linejoin:round"
   id="rect148"
   width="4"
   height="2"
   x="98"
   y="71" /><rect
   style="fill:#ff0000;stroke-width:3.06007;stroke-linecap:round;stroke-linejoin:round"
   id="rect149"
   width="4"
   height="2"
   x="104"
   y="71" /><rect
   style="fill:#ff0000;stroke-width:3.06007;stroke-linecap:round;stroke-linejoin:round"
   id="rect150"
   width="4"
   height="2"
   x="108"
   y="78" /><rect
   style="fill:#ff0000;stroke-width:3.06007;stroke-linecap:round;stroke-linejoin:round"
   id="rect151"
   width="4"
   height="2"
   x="102"
   y="78" /><rect
   style="fill:#ff0000;stroke-width:3.06007;stroke-linecap:round;stroke-linejoin:round"
   id="rect152"
   width="4"
   height="2"
   x="96"
   y="78" /><rect
   style="fill:#ff0000;stroke-width:3.06007;stroke-linecap:round;stroke-linejoin:round"
   id="rect153"
   width="4"
   height="2"
   x="90"
   y="78" /><rect
   style="fill:#ff0000;stroke-width:3.06007;stroke-linecap:round;stroke-linejoin:round"
   id="rect154"
   width="4"
   height="2"
   x="84"
   y="78" /><rect
   style="fill:#ff0000;stroke-width:3.06007;stroke-linecap:round;stroke-linejoin:round"
   id="rect155"
   width="4"
   height="2"
   x="78"
   y="78" /><rect
   style="fill:#ff0000;stroke-width:3.06007;stroke-linecap:round;stroke-linejoin:round"
   id="rect156"
   width="4"
   height="2"
   x="72"
   y="78" /><rect
   style="fill:#ff0000;stroke-width:3.06007;stroke-linecap:round;stroke-linejoin:round"
   id="rect157"
   width="4"
   height="2"
   x="66"
   y="78" /><rect
   style="fill:#ff0000;stroke-width:3.06008;stroke-linecap:round;stroke-linejoin:round"
   id="rect158"
   width="2"
   height="4"
   x="81"
   y="82" /><rect
   style="fill:#ff0000;stroke-width:3.06008;stroke-linecap:round;stroke-linejoin:round"
   id="rect159"
   width="2"
   height="4"
   x="81"
   y="88" /><rect
   style="fill:#ff0000;stroke-width:3.06008;stroke-linecap:round;stroke-linejoin:round"
   id="rect160"
   width="2"
   height="4"
   x="81"
   y="94" /><rect
   style="fill:#ff0000;stroke-width:3.06008;stroke-linecap:round;stroke-linejoin:round"
   id="rect161"
   width="2"
   height="4"
   x="81"
   y="100" /><rect
   style="fill:#ff0000;stroke-width:3.06008;stroke-linecap:round;stroke-linejoin:round"
   id="rect162"
   width="2"
   height="4"
   x="81"
   y="106" /><rect
   style="fill:#ff0000;stroke-width:3.06008;stroke-linecap:round;stroke-linejoin:round"
   id="rect163"
   width="2"
   height="4"
   x="81"
   y="112" /><rect
   style="fill:#ff0000;stroke-width:3.06008;stroke-linecap:round;stroke-linejoin:round"
   id="rect164"
   width="2"
   height="4"
   x="81"
   y="118" /><rect
   style="fill:#ff0000;stroke-width:3.06008;stroke-linecap:round;stroke-linejoin:round"
   id="rect165"
   width="2"
   height="4"
   x="88"
   y="85" /><rect
   style="fill:#ff0000;stroke-width:3.06008;stroke-linecap:round;stroke-linejoin:round"
   id="rect166"
   width="2"
   height="4"
   x="88"
   y="91" /><rect
   style="fill:#ff0000;stroke-width:3.06008;stroke-linecap:round;stroke-linejoin:round"
   id="rect167"
   width="2"
   height="4"
   x="88"
   y="97" /><rect
   style="fill:#ff0000;stroke-width:3.06008;stroke-linecap:round;stroke-linejoin:round"
   id="rect168"
   width="2"
   height="4"
   x="88"
   y="103" /><rect
   style="fill:#ff0000;stroke-width:3.06008;stroke-linecap:round;stroke-linejoin:round"
   id="rect169"
   width="2"
   height="4"
   x="88"
   y="109" /><rect
   style="fill:#ff0000;stroke-width:3.06008;stroke-linecap:round;stroke-linejoin:round"
   id="rect170"
   width="2"
   height="4"
   x="88"
   y="115" /><rect
   style="fill:#ff0000;stroke-width:3.06008;stroke-linecap:round;stroke-linejoin:round"
   id="rect171"
   width="2"
   height="4"
   x="88"
   y="121" /><rect
   style="fill:#ff0000;stroke-width:3.06008;stroke-linecap:round;stroke-linejoin:round"
   id="rect172"
   width="2"
   height="4"
   x="17"
   y="46" /><rect
   style="fill:#ff0000;stroke-width:3.06008;stroke-linecap:round;stroke-linejoin:round"
   id="rect173"
   width="2"
   height="4"
   x="20"
   y="40" /><rect
   style="fill:#ff0000;stroke-width:3.24571;stroke-linecap:round;stroke-linejoin:round"
   id="rect174"
   width="3"
   height="3"
   x="23"
   y="35" /><rect
   style="fill:#ff0000;stroke-width:3.24571;stroke-linecap:round;stroke-linejoin:round"
   id="rect175"
   width="3"
   height="3"
   x="27"
   y="31" /><rect
   style="fill:#ff0000;stroke-width:3.24571;stroke-linecap:round;stroke-linejoin:round"
   id="rect176"
   width="3"
   height="3"
   x="31"
   y="27" /><rect
   style="fill:#ff0000;stroke-width:3.24571;stroke-linecap:round;stroke-linejoin:round"
   id="rect177"
   width="3"
   height="3"
   x="35"
   y="23" /><rect
   style="fill:#ff0000;stroke-width:3.06008;stroke-linecap:round;stroke-linejoin:round"
   id="rect178"
   width="4"
   height="2"
   x="40"
   y="20" /><rect
   style="fill:#ff0000;stroke-width:3.06008;stroke-linecap:round;stroke-linejoin:round"
   id="rect179"
   width="4"
   height="2"
   x="46"
   y="17" /><rect
   style="fill:#ff0000;stroke-width:3.06008;stroke-linecap:round;stroke-linejoin:round"
   id="rect180"
   width="4"
   height="2"
   x="52"
   y="15" /><rect
   style="fill:#ff0000;stroke-width:3.06008;stroke-linecap:round;stroke-linejoin:round"
   id="rect181"
   width="4"
   height="2"
   x="58"
   y="13" /><rect
   style="fill:#ff0000;stroke-width:3.06008;stroke-linecap:round;stroke-linejoin:round"
   id="rect182"
   width="4"
   height="2"
   x="64"
   y="12" /><rect
   style="fill:#ff0000;stroke-width:3.06008;stroke-linecap:round;stroke-linejoin:round"
   id="rect183"
   width="4"
   height="2"
   x="70"
   y="12" /><rect
   style="fill:#ff0000;stroke-width:3.06008;stroke-linecap:round;stroke-linejoin:round"
   id="rect184"
   width="4"
   height="2"
   x="76"
   y="12" /><rect
   style="fill:#ff0000;stroke-width:3.06008;stroke-linecap:round;stroke-linejoin:round"
   id="rect185"
   width="4"
   height="2"
   x="82"
   y="13" /><rect
   style="fill:#ff0000;stroke-width:3.06008;stroke-linecap:round;stroke-linejoin:round"
   id="rect186"
   width="4"
   height="2"
   x="88"
   y="15" /><rect
   style="fill:#ff0000;stroke-width:3.06008;stroke-linecap:round;stroke-linejoin:round"
   id="rect187"
   width="4"
   height="2"
   x="94"
   y="17" /><rect
   style="fill:#ff0000;stroke-width:3.06008;stroke-linecap:round;stroke-linejoin:round"
   id="rect188"
   width="4"
   height="2"
   x="100"
   y="20" /><rect
   style="fill:#ff0000;stroke-width:3.24571;stroke-linecap:round;stroke-linejoin:round"
   id="rect189"
   width="3"
   height="3"
   x="106"
   y="23" /><rect
   style="fill:#ff0000;stroke-width:3.24571;stroke-linecap:round;stroke-linejoin:round"
   id="rect190"
   width="3"
   height="3"
   x="110"
   y="27" /><rect
   style="fill:#ff0000;stroke-width:3.24571;stroke-linecap:round;stroke-linejoin:round"
   id="rect191"
   width="3"
   height="3"
   x="114"
   y="31" /><rect
   style="fill:#ff0000;stroke-width:3.24571;stroke-linecap:round;stroke-linejoin:round"
   id="rect192"
   width="3"
   height="3"
   x="118"
   y="35" /><rect
   style="fill:#ff0000;stroke-width:3.06008;stroke-linecap:round;stroke-linejoin:round"
   id="rect193"
   width="2"
   height="4"
   x="122"
   y="40" /><rect
   style="fill:#ff0000;stroke-width:3.06008;stroke-linecap:round;stroke-linejoin:round"
   id="rect194"
   width="2"
   height="4"
   x="125"
   y="46" /><rect
   style="fill:#ff0000;stroke-width:3.06008;stroke-linecap:round;stroke-linejoin:round"
   id="rect195"
   width="2"
   height="4"
   x="127"
   y="52" /><rect
   style="fill:#ff0000;stroke-width:3.06008;stroke-linecap:round;stroke-linejoin:round"
   id="rect196"
   width="2"
   height="4"
   x="129"
   y="58" /><rect
   style="fill:#ff0000;stroke-width:3.06008;stroke-linecap:round;stroke-linejoin:round"
   id="rect197"
   width="2"
   height="4"
   x="130"
   y="64" /><rect
   style="fill:#ff0000;stroke-width:3.06008;stroke-linecap:round;stroke-linejoin:round"
   id="rect198"
   width="2"
   height="4"
   x="130"
   y="70" /><rect
   style="fill:#ff0000;stroke-width:3.06008;stroke-linecap:round;stroke-linejoin:round"
   id="rect199"
   width="2"
   height="4"
   x="130"
   y="76" /><rect
   style="fill:#ff0000;stroke-width:3.06008;stroke-linecap:round;stroke-linejoin:round"
   id="rect200"
   width="2"
   height="4"
   x="129"
   y="82" /><rect
   style="fill:#ff0000;stroke-width:3.06008;stroke-linecap:round;stroke-linejoin:round"
   id="rect201"
   width="2"
   height="4"
   x="127"
   y="88" /><rect
   style="fill:#ff0000;stroke-width:3.06008;stroke-linecap:round;stroke-linejoin:round"
   id="rect202"
   width="2"
   height="4"
   x="125"
   y="94" /><rect
   style="fill:#ff0000;stroke-width:3.06008;stroke-linecap:round;stroke-linejoin:round"
   id="rect203"
   width="2"
   height="4"
   x="122"
   y="100" /><rect
   style="fill:#ff0000;stroke-width:3.24571;stroke-linecap:round;stroke-linejoin:round"
   id="rect204"
   width="3"
   height="3"
   x="118"
   y="105" /><rect
   style="fill:#ff0000;stroke-width:3.24571;stroke-linecap:round;stroke-linejoin:round"
   id="rect205"
   width="3"
   height="3"
   x="114"
   y="110" /><rect
   style="fill:#ff0000;stroke-width:3.24571;stroke-linecap:round;stroke-linejoin:round"
   id="rect206"
   width="3"
   height="3"
   x="110"
   y="114" /><rect
   style="fill:#ff0000;stroke-width:3.24571;stroke-linecap:round;stroke-linejoin:round"
   id="rect207"
   width="3"
   height="3"
   x="106"
   y="118" /><rect
   style="fill:#ff0000;stroke-width:3.06008;stroke-linecap:round;stroke-linejoin:round"
   id="rect208"
   width="4"
   height="2"
   x="70"
   y="130" /><rect
   style="fill:#ff0000;stroke-width:3.06008;stroke-linecap:round;stroke-linejoin:round"
   id="rect209"
   width="4"
   height="2"
   x="76"
   y="130" /><rect
   style="fill:#ff0000;stroke-width:3.06008;stroke-linecap:round;stroke-linejoin:round"
   id="rect210"
   width="4"
   height="2"
   x="82"
   y="129" /><rect
   style="fill:#ff0000;stroke-width:3.06008;stroke-linecap:round;stroke-linejoin:round"
   id="rect211"
   width="4"
   height="2"
   x="88"
   y="127" /><rect
   style="fill:#ff0000;stroke-width:3.06008;stroke-linecap:round;stroke-linejoin:round"
   id="rect212"
   width="4"
   height="2"
   x="64"
   y="130" /><rect
   style="fill:#ff0000;stroke-width:3.06008;stroke-linecap:round;stroke-linejoin:round"
   id="rect213"
   width="4"
   height="2"
   x="58"
   y="129" /><rect
   style="fill:#ff0000;stroke-width:3.06008;stroke-linecap:round;stroke-linejoin:round"
   id="rect214"
   width="4"
   height="2"
   x="52"
   y="127" /><rect
   style="fill:#ff0000;stroke-width:3.06008;stroke-linecap:round;stroke-linejoin:round"
   id="rect215"
   width="4"
   height="2"
   x="46"
   y="125" /><rect
   style="fill:#ff0000;stroke-width:3.06008;stroke-linecap:round;stroke-linejoin:round"
   id="rect216"
   width="4"
   height="2"
   x="40"
   y="122" /><rect
   style="fill:#ff0000;stroke-width:3.24571;stroke-linecap:round;stroke-linejoin:round"
   id="rect217"
   width="3"
   height="3"
   x="35"
   y="118" /><rect
   style="fill:#ff0000;stroke-width:3.24571;stroke-linecap:round;stroke-linejoin:round"
   id="rect218"
   width="3"
   height="3"
   x="31"
   y="114" /><rect
   style="fill:#ff0000;stroke-width:3.24571;stroke-linecap:round;stroke-linejoin:round"
   id="rect219"
   width="3"
   height="3"
   x="27"
   y="110" /><rect
   style="fill:#ff0000;stroke-width:3.24571;stroke-linecap:round;stroke-linejoin:round"
   id="rect220"
   width="3"
   height="3"
   x="23"
   y="106" /><rect
   style="fill:#ff0000;stroke-width:3.06008;stroke-linecap:round;stroke-linejoin:round"
   id="rect221"
   width="2"
   height="4"
   x="20"
   y="100" /><rect
   style="fill:#ff0000;stroke-width:3.06008;stroke-linecap:round;stroke-linejoin:round"
   id="rect222"
   width="2"
   height="4"
   x="17"
   y="94" /><rect
   style="fill:#ff0000;stroke-width:3.06008;stroke-linecap:round;stroke-linejoin:round"
   id="rect223"
   width="2"
   height="4"
   x="15"
   y="88" /><rect
   style="fill:#ff0000;stroke-width:3.06008;stroke-linecap:round;stroke-linejoin:round"
   id="rect224"
   width="2"
   height="4"
   x="13"
   y="82" /><rect
   style="fill:#ff0000;stroke-width:3.06008;stroke-linecap:round;stroke-linejoin:round"
   id="rect225"
   width="2"
   height="4"
   x="12"
   y="76" /><rect
   style="fill:#ff0000;stroke-width:3.06008;stroke-linecap:round;stroke-linejoin:round"
   id="rect226"
   width="2"
   height="4"
   x="12"
   y="70" /><rect
   style="fill:#ff0000;stroke-width:3.06008;stroke-linecap:round;stroke-linejoin:round"
   id="rect227"
   width="2"
   height="4"
   x="12"
   y="64" /><rect
   style="fill:#ff0000;stroke-width:2.16381;stroke-linecap:round;stroke-linejoin:round"
   id="rect1"
   width="2"
   height="2"
   x="32"
   y="36" /><rect
   style="fill:#ff0000;stroke-width:2.16381;stroke-linecap:round;stroke-linejoin:round"
   id="rect5"
   width="2"
   height="2"
   x="38"
   y="36" /><rect
   style="fill:#ff0000;stroke-width:2.16381;stroke-linecap:round;stroke-linejoin:round"
   id="rect6"
   width="2"
   height="2"
   x="44"
   y="36" /><rect
   style="fill:#ff0000;stroke-width:2.16381;stroke-linecap:round;stroke-linejoin:round"
   id="rect7"
   width="2"
   height="2"
   x="50"
   y="36" /><rect
   style="fill:#ff0000;stroke-width:2.16381;stroke-linecap:round;stroke-linejoin:round"
   id="rect8"
   width="2"
   height="2"
   x="56"
   y="36" /><rect
   style="fill:#ff0000;stroke-width:2.16381;stroke-linecap:round;stroke-linejoin:round"
   id="rect10"
   width="2"
   height="2"
   x="62"
   y="36" /><rect
   style="fill:#ff0000;stroke-width:2.16381;stroke-linecap:round;stroke-linejoin:round"
   id="rect12"
   width="2"
   height="2"
   x="68"
   y="36" /><rect
   style="fill:#ff0000;stroke-width:2.16381;stroke-linecap:round;stroke-linejoin:round"
   id="rect13"
   width="2"
   height="2"
   x="74"
   y="36" /><rect
   style="fill:#ff0000;stroke-width:2.16381;stroke-linecap:round;stroke-linejoin:round"
   id="rect14"
   width="2"
   height="2"
   x="80"
   y="36" /><rect
   style="fill:#ff0000;stroke-width:2.16381;stroke-linecap:round;stroke-linejoin:round"
   id="rect18"
   width="2"
   height="2"
   x="72"
   y="43" /><rect
   style="fill:#ff0000;stroke-width:2.16381;stroke-linecap:round;stroke-linejoin:round"
   id="rect23"
   width="2"
   height="2"
   x="78"
   y="42" /><rect
   style="fill:#ff0000;stroke-width:2.16381;stroke-linecap:round;stroke-linejoin:round"
   id="rect27"
   width="2"
   height="2"
   x="23"
   y="49" /><rect
   style="fill:#ff0000;stroke-width:2.16381;stroke-linecap:round;stroke-linejoin:round"
   id="rect28"
   width="2"
   height="2"
   x="29"
   y="49" /><rect
   style="fill:#ff0000;stroke-width:2.16381;stroke-linecap:round;stroke-linejoin:round"
   id="rect29"
   width="2"
   height="2"
   x="35"
   y="49" /><rect
   style="fill:#ff0000;stroke-width:2.16381;stroke-linecap:round;stroke-linejoin:round"
   id="rect30"
   width="2"
   height="2"
   x="41"
   y="49" /><rect
   style="fill:#ff0000;stroke-width:2.16381;stroke-linecap:round;stroke-linejoin:round"
   id="rect31"
   width="2"
   height="2"
   x="47"
   y="49" /><rect
   style="fill:#ff0000;stroke-width:2.16381;stroke-linecap:round;stroke-linejoin:round"
   id="rect32"
   width="2"
   height="2"
   x="48"
   y="54" /><rect
   style="fill:#ff0000;stroke-width:2.16381;stroke-linecap:round;stroke-linejoin:round"
   id="rect33"
   width="2"
   height="2"
   x="48"
   y="60" /><rect
   style="fill:#ff0000;stroke-width:2.16381;stroke-linecap:round;stroke-linejoin:round"
   id="rect34"
   width="2"
   height="2"
   x="48"
   y="66" /><rect
   style="fill:#ff0000;stroke-width:2.16381;stroke-linecap:round;stroke-linejoin:round"
   id="rect35"
   width="2"
   height="2"
   x="48"
   y="72" /><rect
   style="fill:#ff0000;stroke-width:2.16381;stroke-linecap:round;stroke-linejoin:round"
   id="rect36"
   width="2"
   height="2"
   x="48"
   y="78" /><rect
   style="fill:#ff0000;stroke-width:2.16381;stroke-linecap:round;stroke-linejoin:round"
   id="rect37"
   width="2"
   height="2"
   x="48"
   y="84" /><rect
   style="fill:#ff0000;stroke-width:2.16381;stroke-linecap:round;stroke-linejoin:round"
   id="rect38"
   width="2"
   height="2"
   x="48"
   y="90" /><rect
   style="fill:#ff0000;stroke-width:2.16381;stroke-linecap:round;stroke-linejoin:round"
   id="rect39"
   width="2"
   height="2"
   x="54"
   y="90" /><rect
   style="fill:#ff0000;stroke-width:2.16381;stroke-linecap:round;stroke-linejoin:round"
   id="rect40"
   width="2"
   height="2"
   x="54"
   y="84" /><rect
   style="fill:#ff0000;stroke-width:2.16381;stroke-linecap:round;stroke-linejoin:round"
   id="rect42"
   width="2"
   height="2"
   x="54"
   y="66" /><rect
   style="fill:#ff0000;stroke-width:2.16381;stroke-linecap:round;stroke-linejoin:round"
   id="rect43"
   width="2"
   height="2"
   x="55"
   y="58" /><rect
   style="fill:#ff0000;stroke-width:2.16381;stroke-linecap:round;stroke-linejoin:round"
   id="rect44"
   width="2"
   height="2"
   x="55"
   y="52" /><rect
   style="fill:#ff0000;stroke-width:2.16381;stroke-linecap:round;stroke-linejoin:round"
   id="rect45"
   width="2"
   height="2"
   x="61"
   y="52" /><rect
   style="fill:#ff0000;stroke-width:2.16381;stroke-linecap:round;stroke-linejoin:round"
   id="rect46"
   width="2"
   height="2"
   x="61"
   y="58" /><rect
   style="fill:#ff0000;stroke-width:2.16381;stroke-linecap:round;stroke-linejoin:round"
   id="rect47"
   width="2"
   height="2"
   x="61"
   y="64" /><rect
   style="fill:#ff0000;stroke-width:2.16381;stroke-linecap:round;stroke-linejoin:round"
   id="rect48"
   width="2"
   height="2"
   x="66"
   y="68" /><rect
   style="fill:#ff0000;stroke-width:2.16381;stroke-linecap:round;stroke-linejoin:round"
   id="rect49"
   width="2"
   height="2"
   x="72"
   y="68" /><rect
   style="fill:#ff0000;stroke-width:2.16381;stroke-linecap:round;stroke-linejoin:round"
   id="rect50"
   width="2"
   height="2"
   x="78"
   y="68" /><rect
   style="fill:#ff0000;stroke-width:2.16381;stroke-linecap:round;stroke-linejoin:round"
   id="rect51"
   width="2"
   height="2"
   x="84"
   y="68" /><rect
   style="fill:#ff0000;stroke-width:2.16381;stroke-linecap:round;stroke-linejoin:round"
   id="rect52"
   width="2"
   height="2"
   x="90"
   y="68" /><rect
   style="fill:#ff0000;stroke-width:2.16381;stroke-linecap:round;stroke-linejoin:round"
   id="rect53"
   width="2"
   height="2"
   x="96"
   y="68" /><rect
   style="fill:#ff0000;stroke-width:2.16381;stroke-linecap:round;stroke-linejoin:round"
   id="rect54"
   width="2"
   height="2"
   x="102"
   y="68" /><rect
   style="fill:#ff0000;stroke-width:2.16381;stroke-linecap:round;stroke-linejoin:round"
   id="rect55"
   width="2"
   height="2"
   x="108"
   y="68" /><rect
   style="fill:#ff0000;stroke-width:2.16381;stroke-linecap:round;stroke-linejoin:round"
   id="rect56"
   width="2"
   height="2"
   x="108"
   y="74" /><rect
   style="fill:#ff0000;stroke-width:2.16381;stroke-linecap:round;stroke-linejoin:round"
   id="rect57"
   width="2"
   height="2"
   x="102"
   y="74" /><rect
   style="fill:#ff0000;stroke-width:2.16381;stroke-linecap:round;stroke-linejoin:round"
   id="rect58"
   width="2"
   height="2"
   x="94"
   y="75" /><rect
   style="fill:#ff0000;stroke-width:2.16381;stroke-linecap:round;stroke-linejoin:round"
   id="rect59"
   width="2"
   height="2"
   x="84"
   y="74" /><rect
   style="fill:#ff0000;stroke-width:2.16381;stroke-linecap:round;stroke-linejoin:round"
   id="rect60"
   width="2"
   height="2"
   x="76"
   y="75" /><rect
   style="fill:#ff0000;stroke-width:2.16381;stroke-linecap:round;stroke-linejoin:round"
   id="rect63"
   width="2"
   height="2"
   x="70"
   y="74" /><rect
   style="fill:#ff0000;stroke-width:2.16381;stroke-linecap:round;stroke-linejoin:round"
   id="rect64"
   width="2"
   height="2"
   x="64"
   y="75" /><rect
   style="fill:#ff0000;stroke-width:2.16381;stroke-linecap:round;stroke-linejoin:round"
   id="rect65"
   width="2"
   height="2"
   x="64"
   y="81" /><rect
   style="fill:#ff0000;stroke-width:2.16381;stroke-linecap:round;stroke-linejoin:round"
   id="rect66"
   width="2"
   height="2"
   x="70"
   y="81" /><rect
   style="fill:#ff0000;stroke-width:2.16381;stroke-linecap:round;stroke-linejoin:round"
   id="rect67"
   width="2"
   height="2"
   x="76"
   y="81" /><rect
   style="fill:#ff0000;stroke-width:2.16381;stroke-linecap:round;stroke-linejoin:round"
   id="rect68"
   width="2"
   height="2"
   x="78"
   y="86" /><rect
   style="fill:#ff0000;stroke-width:2.16381;stroke-linecap:round;stroke-linejoin:round"
   id="rect69"
   width="2"
   height="2"
   x="65"
   y="49" /><rect
   style="fill:#ff0000;stroke-width:2.16381;stroke-linecap:round;stroke-linejoin:round"
   id="rect70"
   width="2"
   height="2"
   x="71"
   y="49" /><rect
   style="fill:#ff0000;stroke-width:2.16381;stroke-linecap:round;stroke-linejoin:round"
   id="rect71"
   width="2"
   height="2"
   x="77"
   y="49" /><rect
   style="fill:#ff0000;stroke-width:2.16381;stroke-linecap:round;stroke-linejoin:round"
   id="rect72"
   width="2"
   height="2"
   x="59"
   y="49" /><rect
   style="fill:#ff0000;stroke-width:2.16381;stroke-linecap:round;stroke-linejoin:round"
   id="rect73"
   width="2"
   height="2"
   x="78"
   y="92" /><rect
   style="fill:#ff0000;stroke-width:2.16381;stroke-linecap:round;stroke-linejoin:round"
   id="rect74"
   width="2"
   height="2"
   x="78"
   y="98" /><rect
   style="fill:#ff0000;stroke-width:2.16381;stroke-linecap:round;stroke-linejoin:round"
   id="rect75"
   width="2"
   height="2"
   x="78"
   y="104" /><rect
   style="fill:#ff0000;stroke-width:2.16381;stroke-linecap:round;stroke-linejoin:round"
   id="rect76"
   width="2"
   height="2"
   x="78"
   y="110" /><rect
   style="fill:#ff0000;stroke-width:2.16381;stroke-linecap:round;stroke-linejoin:round"
   id="rect77"
   width="2"
   height="2"
   x="78"
   y="116" /><rect
   style="fill:#ff0000;stroke-width:2.16381;stroke-linecap:round;stroke-linejoin:round"
   id="rect78"
   width="2"
   height="2"
   x="78"
   y="122" /><rect
   style="fill:#ff0000;stroke-width:2.16381;stroke-linecap:round;stroke-linejoin:round"
   id="rect79"
   width="2"
   height="2"
   x="84"
   y="122" /><rect
   style="fill:#ff0000;stroke-width:2.16381;stroke-linecap:round;stroke-linejoin:round"
   id="rect80"
   width="2"
   height="2"
   x="55"
   y="76" /><rect
   style="fill:#ff0000;stroke-width:2.16381;stroke-linecap:round;stroke-linejoin:round"
   id="rect81"
   width="2"
   height="2"
   x="84"
   y="116" /><rect
   style="fill:#ff0000;stroke-width:2.16381;stroke-linecap:round;stroke-linejoin:round"
   id="rect82"
   width="2"
   height="2"
   x="85"
   y="107" /><rect
   style="fill:#ff0000;stroke-width:2.16381;stroke-linecap:round;stroke-linejoin:round"
   id="rect83"
   width="2"
   height="2"
   x="84"
   y="98" /><rect
   style="fill:#ff0000;stroke-width:2.16381;stroke-linecap:round;stroke-linejoin:round"
   id="rect84"
   width="2"
   height="2"
   x="85"
   y="89" /><rect
   style="fill:#ff0000;stroke-width:2.16381;stroke-linecap:round;stroke-linejoin:round"
   id="rect85"
   width="2"
   height="2"
   x="85"
   y="83" /><rect
   style="fill:#ff0000;stroke-width:2.16381;stroke-linecap:round;stroke-linejoin:round"
   id="rect86"
   width="2"
   height="2"
   x="91"
   y="83" /><rect
   style="fill:#ff0000;stroke-width:2.16381;stroke-linecap:round;stroke-linejoin:round"
   id="rect87"
   width="2"
   height="2"
   x="91"
   y="89" /><rect
   style="fill:#ff0000;stroke-width:2.16381;stroke-linecap:round;stroke-linejoin:round"
   id="rect88"
   width="2"
   height="2"
   x="91"
   y="95" /><rect
   style="fill:#ff0000;stroke-width:2.16381;stroke-linecap:round;stroke-linejoin:round"
   id="rect89"
   width="2"
   height="2"
   x="91"
   y="101" /><rect
   style="fill:#ff0000;stroke-width:2.16381;stroke-linecap:round;stroke-linejoin:round"
   id="rect90"
   width="2"
   height="2"
   x="91"
   y="107" /><rect
   style="fill:#ff0000;stroke-width:2.16381;stroke-linecap:round;stroke-linejoin:round"
   id="rect91"
   width="2"
   height="2"
   x="91"
   y="113" /><rect
   style="fill:#ff0000;stroke-width:2.16381;stroke-linecap:round;stroke-linejoin:round"
   id="rect92"
   width="2"
   height="2"
   x="91"
   y="119" /><rect
   style="fill:#ff0000;stroke-width:2.16381;stroke-linecap:round;stroke-linejoin:round"
   id="rect93"
   width="2"
   height="2"
   x="88"
   y="81" /><rect
   style="fill:#ff0000;stroke-width:2.16381;stroke-linecap:round;stroke-linejoin:round"
   id="rect94"
   width="2"
   height="2"
   x="94"
   y="81" /><rect
   style="fill:#ff0000;stroke-width:2.16381;stroke-linecap:round;stroke-linejoin:round"
   id="rect95"
   width="2"
   height="2"
   x="100"
   y="81" /><rect
   style="fill:#ff0000;stroke-width:2.16381;stroke-linecap:round;stroke-linejoin:round"
   id="rect96"
   width="2"
   height="2"
   x="106"
   y="81" /><rect
   style="fill:#ff0000;stroke-width:2.16381;stroke-linecap:round;stroke-linejoin:round"
   id="rect97"
   width="2"
   height="2"
   x="60"
   y="43" /><rect
   style="fill:#ff0000;stroke-width:2.16381;stroke-linecap:round;stroke-linejoin:round"
   id="rect98"
   width="2"
   height="2"
   x="66"
   y="42" /><rect
   style="fill:#ff0000;stroke-width:2.16381;stroke-linecap:round;stroke-linejoin:round"
   id="rect99"
   width="2"
   height="2"
   x="48"
   y="43" /><rect
   style="fill:#ff0000;stroke-width:2.16381;stroke-linecap:round;stroke-linejoin:round"
   id="rect100"
   width="2"
   height="2"
   x="54"
   y="42" /><rect
   style="fill:#ff0000;stroke-width:2.16381;stroke-linecap:round;stroke-linejoin:round"
   id="rect101"
   width="2"
   height="2"
   x="36"
   y="43" /><rect
   style="fill:#ff0000;stroke-width:2.16381;stroke-linecap:round;stroke-linejoin:round"
   id="rect102"
   width="2"
   height="2"
   x="42"
   y="42" /><rect
   style="fill:#ff0000;stroke-width:2.16381;stroke-linecap:round;stroke-linejoin:round"
   id="rect103"
   width="2"
   height="2"
   x="24"
   y="43" /><rect
   style="fill:#ff0000;stroke-width:2.16381;stroke-linecap:round;stroke-linejoin:round"
   id="rect104"
   width="2"
   height="2"
   x="30"
   y="42" /><rect
   style="fill:#ff0000;stroke-width:2.16381;stroke-linecap:round;stroke-linejoin:round"
   id="rect105"
   width="2"
   height="2"
   x="78"
   y="42" /></svg>
